<?xml version="1.0" encoding="utf-8"?>
<!-- Generator: Adobe Illustrator 23.0.0, SVG Export Plug-In . SVG Version: 6.00 Build 0)  -->
<svg version="1.1" id="Layer_1" xmlns="http://www.w3.org/2000/svg" xmlns:xlink="http://www.w3.org/1999/xlink" x="0px" y="0px"
	 viewBox="0 0 68 129" style="enable-background:new 0 0 68 129;" xml:space="preserve">
<style type="text/css">
	.st0{fill-rule:evenodd;clip-rule:evenodd;fill:#34A84E;}
	.st1{fill:#FFFFFF;}
	.st2{fill-rule:evenodd;clip-rule:evenodd;fill:#FFFFFF;}
	.st3{font-family:'ArialMT';}
	.st4{font-size:4.4393px;}
	.st5{fill:none;stroke:#FFFFFF;stroke-width:0.6001;stroke-miterlimit:2.6131;}
	.st6{font-size:6.7318px;}
</style>
<polygon class="st0" points="33.16,-0.02 26.18,5.98 26.18,12.67 21.55,8.43 11.88,8.43 33.16,28.05 "/>
<polygon class="st0" points="32.13,28.95 10.88,9.34 10.88,18.33 14.7,22.14 10.87,22.14 4.07,28.95 "/>
<polygon class="st0" points="34.49,-0.02 41.46,5.98 41.46,12.67 46.09,8.43 55.76,8.43 34.49,28.05 "/>
<polygon class="st0" points="35.51,28.95 56.76,9.34 56.76,18.33 52.94,22.14 56.77,22.14 63.57,28.95 "/>
<polygon class="st0" points="33.16,30.21 3.93,30.21 11.02,37.16 25.66,37.16 25.66,76.93 -0.22,76.93 -0.22,78.97 33.16,78.97 "/>
<polygon class="st0" points="34.49,30.21 63.71,30.21 56.62,37.16 41.98,37.16 41.98,76.93 67.86,76.93 67.86,78.97 34.49,78.97 "/>
<path class="st1" d="M59.48,102.74l2.02-0.2c0.12,0.68,0.37,1.18,0.74,1.5c0.37,0.32,0.87,0.48,1.51,0.48
	c0.67,0,1.17-0.14,1.51-0.43c0.34-0.28,0.51-0.61,0.51-0.99c0-0.24-0.07-0.45-0.22-0.62c-0.14-0.17-0.39-0.32-0.75-0.45
	c-0.24-0.09-0.8-0.24-1.67-0.45c-1.11-0.27-1.9-0.62-2.34-1.02c-0.63-0.57-0.95-1.26-0.95-2.07c0-0.52,0.15-1.01,0.45-1.47
	c0.3-0.46,0.73-0.8,1.29-1.04c0.56-0.24,1.23-0.36,2.03-0.36c1.29,0,2.27,0.28,2.92,0.85s1,1.33,1.03,2.27l-2.08,0.09
	c-0.09-0.53-0.28-0.91-0.57-1.14s-0.73-0.35-1.32-0.35c-0.6,0-1.08,0.12-1.42,0.37c-0.22,0.16-0.33,0.37-0.33,0.64
	c0,0.24,0.1,0.45,0.31,0.63c0.26,0.22,0.9,0.45,1.91,0.69s1.76,0.49,2.24,0.74c0.48,0.26,0.86,0.6,1.14,1.05
	c0.27,0.44,0.41,0.99,0.41,1.64c0,0.59-0.16,1.14-0.49,1.66c-0.33,0.51-0.79,0.9-1.39,1.15s-1.35,0.38-2.24,0.38
	c-1.3,0-2.3-0.3-3-0.9C60.03,104.76,59.62,103.89,59.48,102.74 M51.7,100.14h1.54c1,0,1.62-0.04,1.87-0.12s0.44-0.23,0.58-0.44
	s0.21-0.46,0.21-0.77c0-0.35-0.09-0.63-0.28-0.84s-0.45-0.35-0.78-0.41c-0.17-0.02-0.67-0.03-1.52-0.03H51.7
	C51.7,97.53,51.7,100.14,51.7,100.14z M49.62,106.08v-10.3H54c1.1,0,1.9,0.09,2.4,0.28c0.5,0.18,0.9,0.51,1.2,0.99
	c0.3,0.48,0.45,1.01,0.45,1.62c0,0.77-0.23,1.41-0.68,1.92c-0.45,0.5-1.14,0.82-2.04,0.95c0.45,0.26,0.82,0.55,1.12,0.87
	c0.29,0.31,0.68,0.87,1.18,1.67l1.26,2.01H56.4l-1.5-2.24c-0.53-0.8-0.9-1.3-1.1-1.51c-0.2-0.21-0.41-0.35-0.63-0.43
	c-0.22-0.08-0.57-0.12-1.05-0.12H51.7v4.3h-2.08V106.08z M40.02,106.08v-10.3h7.63v1.74h-5.56v2.28h5.17v1.73h-5.17v2.8h5.75v1.74
	h-7.82V106.08z M30.42,106.08v-10.3h7.63v1.74h-5.56v2.28h5.17v1.73h-5.17v2.8h5.75v1.74h-7.82V106.08z M20.05,106.08v-10.3h2.02
	l4.21,6.88v-6.88h1.93v10.3h-2.09l-4.15-6.72v6.72H20.05z M10.44,106.08v-10.3h7.64v1.74h-5.56v2.28h5.17v1.73h-5.17v2.8h5.75v1.74
	h-7.83V106.08z M3.47,106.08l-3.68-10.3h2.26l2.6,7.62l2.52-7.62h2.21l-3.69,10.3H3.47z M60.57,92.74V82.52h2.08V91h5.17v1.74H60.57
	z M55.58,88.67l-1.42-3.82l-1.39,3.82H55.58z M59.41,92.74h-2.26l-0.9-2.34h-4.12l-0.85,2.34h-2.21l4.01-10.3h2.2L59.41,92.74z
	 M41.82,86.8h1.54c1,0,1.62-0.04,1.87-0.12s0.44-0.23,0.58-0.44c0.14-0.2,0.21-0.46,0.21-0.77c0-0.35-0.09-0.63-0.28-0.84
	s-0.45-0.35-0.78-0.41c-0.17-0.02-0.68-0.03-1.52-0.03h-1.62C41.82,84.19,41.82,86.8,41.82,86.8z M39.74,92.74v-10.3h4.38
	c1.1,0,1.9,0.09,2.4,0.28s0.9,0.51,1.2,0.99c0.3,0.48,0.45,1.01,0.45,1.62c0,0.77-0.23,1.41-0.68,1.92
	c-0.45,0.5-1.13,0.82-2.04,0.95c0.45,0.26,0.82,0.55,1.12,0.87c0.29,0.31,0.69,0.87,1.18,1.67l1.26,2.01h-2.49l-1.5-2.24
	c-0.53-0.8-0.9-1.3-1.1-1.51c-0.2-0.21-0.41-0.35-0.63-0.43c-0.22-0.08-0.57-0.12-1.05-0.12h-0.42v4.3h-2.08V92.74z M29.33,82.44
	h2.08v5.58c0,0.88,0.03,1.46,0.08,1.72c0.09,0.42,0.3,0.76,0.64,1.02c0.34,0.26,0.79,0.38,1.37,0.38c0.59,0,1.04-0.12,1.34-0.36
	c0.3-0.24,0.48-0.54,0.54-0.89s0.09-0.93,0.09-1.75v-5.7h2.08v5.41c0,1.24-0.05,2.11-0.17,2.62c-0.11,0.51-0.32,0.94-0.62,1.29
	s-0.71,0.63-1.21,0.84c-0.51,0.21-1.17,0.31-1.98,0.31c-0.98,0-1.73-0.11-2.24-0.34c-0.51-0.23-0.91-0.52-1.2-0.88
	c-0.29-0.36-0.49-0.74-0.58-1.14c-0.14-0.59-0.2-1.46-0.2-2.61v-5.5H29.33z M22.87,92.74v-8.56h-3.05v-1.74H28v1.74h-3.05v8.56
	H22.87z M16.69,88.67l-1.42-3.82l-1.39,3.82H16.69z M20.52,92.74h-2.26l-0.9-2.34h-4.12l-0.85,2.34h-2.21l4.01-10.3h2.2L20.52,92.74
	z M0.86,92.74v-10.3h2.02l4.22,6.88v-6.88h1.93v10.3H6.94l-4.15-6.72v6.72H0.86z"/>
<polygon class="st2" points="10.35,122.69 10.35,128.69 8.77,128.69 8.77,122.69 6.98,122.69 6.98,121.36 12.14,121.36 
	12.14,122.69 "/>
<path class="st2" d="M19.78,121.36v4.56c0,1-0.26,1.74-0.79,2.23c-0.52,0.49-1.31,0.74-2.37,0.74c-1.07,0-1.87-0.25-2.39-0.74
	s-0.79-1.23-0.79-2.23v-4.56H15v4.32c0,0.6,0.13,1.06,0.4,1.37c0.27,0.31,0.67,0.46,1.2,0.46s0.94-0.15,1.21-0.46
	s0.41-0.76,0.41-1.36v-4.32h1.56V121.36z"/>
<path class="st2" d="M23.28,124.49h0.24c0.63,0,1.05-0.07,1.26-0.21c0.2-0.14,0.31-0.38,0.31-0.72c0-0.36-0.11-0.62-0.33-0.77
	s-0.63-0.23-1.24-0.23h-0.24V124.49z M27.02,128.69h-1.81l-1.93-3.43v3.43h-1.57v-7.34h2.24c0.89,0,1.56,0.17,2,0.52
	c0.44,0.35,0.67,0.87,0.67,1.56c0,0.5-0.15,0.94-0.46,1.29c-0.3,0.36-0.7,0.57-1.18,0.63L27.02,128.69z"/>
<path class="st2" d="M32.04,125.9l-0.82-2.37c-0.02-0.07-0.05-0.19-0.09-0.36c-0.04-0.17-0.08-0.38-0.12-0.63
	c-0.04,0.24-0.09,0.45-0.13,0.64s-0.07,0.31-0.09,0.38L30,125.9L32.04,125.9L32.04,125.9z M27.37,128.69l2.79-7.34h1.79l2.83,7.34
	H33l-0.6-1.56h-2.84l-0.51,1.56H27.37z"/>
<path class="st2" d="M57.97,125.9l-0.82-2.37c-0.02-0.07-0.05-0.19-0.09-0.36c-0.04-0.17-0.08-0.38-0.12-0.63
	c-0.04,0.24-0.09,0.45-0.13,0.64s-0.07,0.31-0.09,0.38l-0.79,2.34L57.97,125.9L57.97,125.9z M53.3,128.69l2.79-7.34h1.79l2.83,7.34
	h-1.78l-0.6-1.56h-2.84l-0.51,1.56H53.3z"/>
<polygon class="st2" points="35.86,128.69 35.86,121.36 37.43,121.36 37.43,124.68 39.88,121.36 41.69,121.36 39.07,124.7 
	41.79,128.69 39.9,128.69 37.43,124.86 37.43,128.69 "/>
<polygon class="st2" points="42.82,128.69 42.82,121.36 44.39,121.36 44.39,124.3 47.57,124.3 47.57,121.36 49.14,121.36 
	49.14,128.69 47.57,128.69 47.57,125.63 44.39,125.63 44.39,128.69 "/>
<rect x="51.11" y="121.36" class="st2" width="1.57" height="7.34"/>
<text transform="matrix(1 0 0 1 31.2251 115.1759)" class="st1 st3 st4">By</text>
<line class="st5" x1="-0.2" y1="114.05" x2="28.02" y2="114.05"/>
<line class="st5" x1="39.57" y1="114.05" x2="67.79" y2="114.05"/>
<text transform="matrix(1 0 0 1 56.5249 4.6666)" class="st1 st3 st6"> ®</text>
</svg>
